<?xml version="1.0" encoding="utf-8"?>
<!-- Generator: Adobe Illustrator 14.0.0, SVG Export Plug-In . SVG Version: 6.00 Build 43363)  -->
<!DOCTYPE svg PUBLIC "-//W3C//DTD SVG 1.1//EN" "http://www.w3.org/Graphics/SVG/1.1/DTD/svg11.dtd">
<svg version="1.1" id="ufc" xmlns="http://www.w3.org/2000/svg" xmlns:xlink="http://www.w3.org/1999/xlink" x="0px" y="0px"
	 width="400px" height="300px" viewBox="0 0 400 300" enable-background="new 0 0 400 300" xml:space="preserve">
<path id="u" fill-rule="evenodd" clip-rule="evenodd" fill="#fff" d="M118.879,88.682c0,0-19.513,70.07-23.167,83.194
	c-1.622,5.822-2.32,8.269-11.448,8.04c-12.659-0.132-10.345-5.942-9.918-8.04c0.427-2.097,23.168-83.194,23.168-83.194h-40.54
	l-27.087,97.264c-3.246,11.792,8.491,20.893,18.375,20.83c7.915-0.051,24.747,0,53.642,0c24.02,0,26.508-8.849,29.017-18.674
	c1.302-5.098,27.686-99.42,27.686-99.42H118.879z"/>
<polygon id="f_1_" fill-rule="evenodd" clip-rule="evenodd" fill="#fff" points="264.692,88.682 178.267,88.682 171.052,114.591
	257.478,114.591 "/>
<polygon id="f" fill-rule="evenodd" clip-rule="evenodd" fill="#fff" points="145.379,206.775 185.531,206.775 199.065,158.176
	245.34,158.176 252.545,132.303 166.119,132.303 "/>
<path id="c" fill-rule="evenodd" clip-rule="evenodd" fill="#fff" d="M308.189,130.303c1.026-3.737,2.529-12.748,5.268-14.589
	c2.498-1.681,7.45-1.217,11.957-1.217c12.958,0,24.767,0,37.49,0c2.358-8.586,4.789-17.098,7.094-25.737
	c-21.751,0-43.503,0-65.254,0c-5.618,0.394-13.165,1.093-17.834,3.445c-7.251,3.65-9.218,11.46-11.754,20.67
	c-5.717,20.762-11.722,42.306-17.631,63.432c-1.198,4.28-3.044,8.645-3.445,12.563c-1.269,12.381,11.282,16.526,20.874,17.429
	c21.886,0,43.772,0,65.658,0c2.43-8.516,4.884-17.005,7.094-25.738c-9.116,0-17.858,0-27.562,0c-6.221,0-23.408,1.941-24.521-3.241
	c-0.467-2.177,1.171-5.735,1.824-8.106C301.211,155.548,304.456,143.886,308.189,130.303z"/>
</svg>
